<svg version="1.2" xmlns="http://www.w3.org/2000/svg" xmlns:xlink="http://www.w3.org/1999/xlink" overflow="visible" preserveAspectRatio="none" viewBox="0 0 20 16" width="20" height="16"><g transform="translate(0, 0)"><g transform="translate(-8.673617379884035e-18, 0) rotate(0)"><path d="M18,2h-8l-2,-2h-6c-1.11,0 -1.99,0.89 -1.99,2l-0.01,12c0,1.11 0.89,2 2,2h16c1.11,0 2,-0.89 2,-2v-10c0,-1.11 -0.89,-2 -2,-2zM18,14h-16v-12h5.17l2,2h8.83zM10,10h2v2h2v-2h2v-2h-2v-2h-2v2h-2z" style="stroke-width: 0; stroke-linecap: butt; stroke-linejoin: miter; fill: rgb(113, 113, 113);" vector-effect="non-scaling-stroke"/></g><defs><path id="path-159731302495916" d="M18,2h-8l-2,-2h-6c-1.11,0 -1.99,0.89 -1.99,2l-0.01,12c0,1.11 0.89,2 2,2h16c1.11,0 2,-0.89 2,-2v-10c0,-1.11 -0.89,-2 -2,-2zM18,14h-16v-12h5.17l2,2h8.83zM10,10h2v2h2v-2h2v-2h-2v-2h-2v2h-2z" vector-effect="non-scaling-stroke"/></defs></g></svg>