<svg version="1.2" xmlns="http://www.w3.org/2000/svg" xmlns:xlink="http://www.w3.org/1999/xlink" overflow="visible" preserveAspectRatio="none" viewBox="0 -4 24 24" width="24" height="24"><g transform="translate(0, 0)"><g transform="translate(0, 0) rotate(0)"><path d="M4,2h18v-2h-18c-1.1,0 -2,0.9 -2,2v11h-2v3h14v-3h-10zM23,4h-6c-0.55,0 -1,0.45 -1,1v10c0,0.55 0.45,1 1,1h6c0.55,0 1,-0.45 1,-1v-10c0,-0.55 -0.45,-1 -1,-1zM22,13h-4v-7h4z" style="stroke-width: 0; stroke-linecap: butt; stroke-linejoin: miter; fill: rgb(113, 113, 113);" vector-effect="non-scaling-stroke"/></g><defs><path id="path-159724088660620" d="M4,2h18v-2h-18c-1.1,0 -2,0.9 -2,2v11h-2v3h14v-3h-10zM23,4h-6c-0.55,0 -1,0.45 -1,1v10c0,0.55 0.45,1 1,1h6c0.55,0 1,-0.45 1,-1v-10c0,-0.55 -0.45,-1 -1,-1zM22,13h-4v-7h4z" vector-effect="non-scaling-stroke"/></defs></g></svg>