<svg xmlns="http://www.w3.org/2000/svg" width="12" height="12" viewBox="0 0 12 12">
    <g fill="none" fill-rule="evenodd">
        <path fill="#EEDE16" d="M6.633 5.485A.731.731 0 0 1 6.8 4.93a.736.736 0 0 1-.502-.163.664.664 0 0 1-.201-.522.645.645 0 0 1-.503.13c-.205-.013-.342-.128-.402-.163-.037-.045-.074-.086-.1-.13-.007.002-.007.005 0 0a.77.77 0 0 1-.335.424.646.646 0 0 1-.57 0 .814.814 0 0 1 0 .555.816.816 0 0 1-.469.36c.15.084.278.224.302.424.053.215-.021.398-.134.555a.62.62 0 0 1 .502.163c.17.152.22.342.201.522a.898.898 0 0 1 .436-.163c.04.009.069.01.1 0 .218.044.373.17.47.327.057-.17.154-.331.334-.425a.684.684 0 0 1 .57-.032c-.05-.16-.07-.346.033-.523.084-.202.252-.307.436-.36a.743.743 0 0 1-.335-.424"/>
        <path fill="#3FB187" d="M3.685 3.657l.435.424c.13.095.297.177.436.098a.277.277 0 0 0 .134-.163 1.29 1.29 0 0 0 .033-.424c-.014-.021-.02-.053-.033-.098l-.235-1.437c-.013-.196-.09-.196-.134-.196h-.033c-.02.008-.073.069-.1.13l-.604 1.274a.292.292 0 0 0 .1.392M5.326 3.592c-.011-.008-.011-.006 0 0 .02.13.059.263.134.326.044.036.105.087.201.098.12.009.16-.023.235-.065a1 1 0 0 0 .167-.261C6.595 2.69 7.408 1.104 7.705.424c.101-.188.125-.332.067-.391a.178.178 0 0 0-.1-.033.258.258 0 0 0-.135.033c-.282.102-1.522.599-2.043.816-.268.1-.361.186-.436.424-.045.068-.033.315 0 .458l.268 1.86z"/>
        <path fill="#EBC01C" d="M6.8 3.494v.032l-.268.523c-.04.157-.068.34.034.457a.454.454 0 0 0 .234.065c.111-.004.24-.038.402-.098.022-.022.05-.037.1-.032l1.34-.686c.162-.083.138-.155.135-.196-.012-.001-.017-.012-.034-.033-.001-.016-.077-.046-.134-.065l-1.44-.163c-.265-.03-.349.183-.369.196M7.403 4.996H7.37c-.107.069-.225.147-.268.228v.033a.31.31 0 0 0-.034.196c.034.114.078.142.134.196.095.038.19.066.302.098 1.152.167 2.954.435 3.684.522.24.015.39-.007.436-.065 0-.032.007-.078 0-.13-.022-.036-.04-.066-.067-.099-.2-.239-1.07-1.245-1.44-1.665-.184-.22-.298-.28-.536-.294-.097-.004-.334.084-.47.163l-1.708.817z"/>
        <path fill="#E48E40" d="M7.906 6.334l-.603-.065c-.158-.002-.343.029-.402.163a.23.23 0 0 0 0 .229.794.794 0 0 0 .2.326l.034.033c-.002-.002.021.02.034.065L8.24 8.098c.13.139.193.094.234.065-.004.003.005-.005 0 0 .034-.033.04-.112.034-.196L8.24 6.628c-.061-.268-.294-.28-.335-.294M6.666 7.347c-.01-.007-.01-.008 0 0-.117-.1-.23-.186-.335-.196-.05-.001-.13-.008-.2.032-.118.07-.132.118-.168.196-.006.09-.003.187 0 .294.194 1.125.49 2.877.636 3.592.055.216.122.347.201.359a.291.291 0 0 0 .134-.033.136.136 0 0 1 .067-.065c.16-.28.865-1.394 1.173-1.861.141-.243.164-.367.1-.588-.022-.096-.18-.288-.301-.392L6.666 7.347z"/>
        <path fill="#E7486D" d="M5.494 8.26v-.032L5.36 7.64c-.04-.14-.128-.303-.302-.326a.315.315 0 0 0-.2.065c-.094.07-.177.17-.269.327a1.695 1.695 0 0 1-.033.065l-.704 1.306c-.077.176-.015.22 0 .229.022.017.033.023.034.032.036.01.115-.01.167-.032l1.24-.686c.257-.127.196-.348.2-.36M4.12 7.38c.013-.002.013-.003 0 0 .07-.13.119-.26.1-.36-.018-.05-.037-.126-.1-.196-.101-.07-.152-.068-.234-.065a.88.88 0 0 0-.302.098C2.557 7.365.941 8.182.301 8.555c-.205.101-.312.204-.301.26a.254.254 0 0 0 .067.132c.036.006.068.02.1.032.315.076 1.619.387 2.178.523.272.061.4.044.603-.098.078-.036.217-.243.301-.36L4.12 7.38z"/>
        <path fill="#2B8B9D" d="M2.847 6.596h.034l.536-.294c.127-.078.26-.21.234-.36a.37.37 0 0 0-.134-.195 1.14 1.14 0 0 0-.402-.13c-.017-.012-.05-.017-.1-.034L1.54 5.355c-.192-.026-.216.046-.235.065.005.023.002.035 0 .033-.004.042.039.11.1.163l1.04.947c.198.183.395.058.401.033M3.316 5.061c.012-.009.014-.009 0 0 .156.004.299.01.402-.033.03-.037.1-.079.134-.163.053-.11.034-.158 0-.228-.033-.09-.094-.167-.167-.262-.832-.786-2.133-2.03-2.68-2.514-.178-.154-.312-.22-.369-.196a.34.34 0 0 0-.1.098c.002.043-.002.077 0 .098.02.327.121 1.63.167 2.188.019.272.075.386.268.522.069.07.314.134.47.163l1.875.327z"/>
    </g>
</svg>
